<svg xmlns="http://www.w3.org/2000/svg" viewBox="0 0 64 64" height="32" width="32"><g data-name="book-education-knowledge"><path fill="#ff5023" d="M9 14v41H3V19a5 5 0 0 1 5-5Z"/><path fill="#fff" d="M9 14h32v36H9z"/><path fill="#fff" d="M29 4h32v36H29z"/><path fill="#ffeb99" d="M35 10h20v8H35z"/><path fill="#e0e0e2" d="M9 53h31v4H9zm20-10h31v4H29z"/><path fill="#483D32" d="M9 53v4h32v3H8a5 5 0 0 1 0-10h33v3Z"/><path fill="#1e81ce" d="M29 4v41h-6V9a5 5 0 0 1 5-5Z"/><path fill="#483D32" d="M60 43h1v-3H28a5 5 0 1 0 0 10h33v-3H29v-4Z"/><path d="M61 3H28a6 6 0 0 0-6 6v4H8a6 6 0 0 0-6 6v36a6 6 0 0 0 6 6h33a1 1 0 0 0 1-1v-3a1 1 0 0 0-1-1v-2a1 1 0 0 0 1-1v-2h19a1 1 0 0 0 1-1v-3a1 1 0 0 0-1-1v-2a1 1 0 0 0 1-1V4a1 1 0 0 0-1-1Zm-1 39H30v-1h30Zm-32 7a4 4 0 0 1 0-8Zm0-44v34a6 6 0 0 0-4 2V9a4 4 0 0 1 4-4Zm-6 40a6 6 0 0 0 2 4H10V15h12ZM8 15v34a6 6 0 0 0-4 2V19a4 4 0 0 1 4-4ZM4 55a4 4 0 0 1 4-4v8a4 4 0 0 1-4-4Zm36 4H10v-1h30Zm-1-3H10v-2h29Zm1-4H10v-1h30Zm20-3H30v-1h30Zm-1-3H30v-2h29Zm1-7H30V5h30v34Z"/><path d="M55 9H35a1 1 0 0 0-1 1v8a1 1 0 0 0 1 1h20a1 1 0 0 0 1-1v-8a1 1 0 0 0-1-1Zm-1 8H36v-6h18Z"/></g></svg>