<!-- <?xml version="1.0" encoding="utf-8"?>
<svg fill="#000000" width="800px" height="800px" viewBox="0 0 24 24" role="img" xmlns="http://www.w3.org/2000/svg"><title>pandas icon</title><path d="M16.922 0h2.623v18.104h-2.623zm-4.126 12.94h2.623v2.57h-2.623zm0-7.037h2.623v5.446h-2.623zm0 11.197h2.623v5.446h-2.623zM4.456 5.896h2.622V24H4.455zm4.213 2.559h2.623v2.57H8.67zm0 4.151h2.623v5.447H8.67zm0-11.187h2.623v5.446H8.67Z"/></svg> -->
<svg xmlns="http://www.w3.org/2000/svg" width="80.32" height="128" viewBox="0 0 256 408"><path fill="#130754" d="M71.478 24.072h44.504v92.41H71.478zm0 189.825h44.504v92.409H71.478zM0 100.057h44.505v307.175H0zm141.496 190.084H186v92.409h-44.504zm0-189.973H186v92.41h-44.504zM211.496 0H256v307.174h-44.505z"/><path fill="#FFCA00" d="M71.478 143.454h44.505v43.6H71.478z"/><path fill="#E70488" d="M141.496 219.55h44.505v43.6h-44.505z"/></svg>
